<svg width="24" height="24" viewBox="0 0 24 24" fill="none" xmlns="http://www.w3.org/2000/svg">
<path d="M21.792 17.086C21.212 16.506 20.632 15.916 20.042 15.336C19.962 15.256 19.882 15.166 19.792 15.086C19.7464 15.0395 19.6919 15.0025 19.6318 14.9772C19.5717 14.952 19.5072 14.939 19.442 14.939C19.3768 14.939 19.3123 14.952 19.2522 14.9772C19.1921 15.0025 19.1376 15.0395 19.092 15.086C19.0451 15.1325 19.0079 15.1878 18.9825 15.2488C18.9572 15.3097 18.9441 15.375 18.9441 15.441C18.9441 15.5071 18.9572 15.5724 18.9825 15.6333C19.0079 15.6943 19.0451 15.7496 19.092 15.796L20.232 16.936H9.28199C8.69321 16.936 8.12854 16.7022 7.71221 16.2858C7.29588 15.8695 7.06199 15.3048 7.06199 14.716C7.06199 14.1273 7.29588 13.5626 7.71221 13.1463C8.12854 12.7299 8.69321 12.496 9.28199 12.496H12.282C12.7042 12.496 13.1223 12.4129 13.5123 12.2513C13.9024 12.0898 14.2568 11.8529 14.5553 11.5544C14.8539 11.2559 15.0907 10.9014 15.2523 10.5114C15.4138 10.1213 15.497 9.70325 15.497 9.28105C15.497 8.85885 15.4138 8.44078 15.2523 8.05072C15.0907 7.66066 14.8539 7.30624 14.5553 7.0077C14.2568 6.70916 13.9024 6.47234 13.5123 6.31077C13.1223 6.1492 12.7042 6.06605 12.282 6.06605H7.01199C6.88808 5.45902 6.5432 4.91963 6.04419 4.55245C5.54519 4.18526 4.92763 4.01644 4.31123 4.07871C3.69483 4.14097 3.1235 4.4299 2.70802 4.88947C2.29254 5.34904 2.0625 5.94651 2.0625 6.56605C2.0625 7.18558 2.29254 7.78305 2.70802 8.24262C3.1235 8.70219 3.69483 8.99112 4.31123 9.05339C4.92763 9.11565 5.54519 8.94683 6.04419 8.57964C6.5432 8.21246 6.88808 7.67307 7.01199 7.06605H12.282C12.8694 7.06605 13.4328 7.29941 13.8482 7.7148C14.2636 8.1302 14.497 8.69359 14.497 9.28105C14.497 9.8685 14.2636 10.4319 13.8482 10.8473C13.4328 11.2627 12.8694 11.496 12.282 11.496H9.28199C8.85913 11.496 8.44042 11.5793 8.04975 11.7412C7.65908 11.903 7.30411 12.1402 7.00511 12.4392C6.7061 12.7382 6.46892 13.0931 6.3071 13.4838C6.14528 13.8745 6.06199 14.2932 6.06199 14.716C6.06199 15.1389 6.14528 15.5576 6.3071 15.9483C6.46892 16.339 6.7061 16.6939 7.00511 16.9929C7.30411 17.2919 7.65908 17.5291 8.04975 17.6909C8.44042 17.8528 8.85913 17.936 9.28199 17.936H20.242L19.342 18.836C19.252 18.916 19.172 19.006 19.092 19.086C19.0451 19.1325 19.0079 19.1878 18.9825 19.2488C18.9572 19.3097 18.9441 19.375 18.9441 19.441C18.9441 19.5071 18.9572 19.5724 18.9825 19.6333C19.0079 19.6943 19.0451 19.7496 19.092 19.796C19.1866 19.8854 19.3119 19.9351 19.442 19.9351C19.5721 19.9351 19.6973 19.8854 19.792 19.796L21.542 18.046L21.792 17.796C21.8389 17.7496 21.8761 17.6943 21.9014 17.6333C21.9268 17.5724 21.9399 17.5071 21.9399 17.441C21.9399 17.375 21.9268 17.3097 21.9014 17.2488C21.8761 17.1878 21.8389 17.1325 21.792 17.086ZM4.56199 8.06605C4.26532 8.06605 3.97531 7.97807 3.72863 7.81325C3.48196 7.64843 3.2897 7.41416 3.17617 7.14007C3.06264 6.86598 3.03293 6.56438 3.09081 6.27341C3.14869 5.98244 3.29155 5.71516 3.50133 5.50539C3.71111 5.29561 3.97838 5.15275 4.26935 5.09487C4.56033 5.03699 4.86193 5.06669 5.13601 5.18023C5.4101 5.29376 5.64437 5.48602 5.80919 5.73269C5.97402 5.97936 6.06199 6.26937 6.06199 6.56605C6.06199 6.96387 5.90395 7.3454 5.62265 7.62671C5.34135 7.90801 4.95981 8.06605 4.56199 8.06605Z" fill="#6A5FF5"/>
</svg>
